<svg xmlns="http://www.w3.org/2000/svg" width="78" height="78" viewBox="0 0 78 78">
    <g fill="none" fill-rule="evenodd" stroke="#4BAEB4" stroke-linecap="round" stroke-linejoin="round" stroke-width="6.364">
        <path d="M50.91 19.091L50.91 19.059M31.82 57.273h6.363c3.513 0 6.363 2.85 6.363 6.363V70H12.728v-6.364M38.183 0l9.545 9.545 22.273 5.973c0 7.71-5.247 14.43-12.727 16.3L70 70H57.274L50.91 50.91l-9.545 6.363M.001 12.727l3.726 3.726c4.973 4.973 4.973 13.03 0 18.003C1.34 36.842 0 40.078 0 43.454v7.455c0 7.029 5.699 12.727 12.727 12.727v-9.545c0-14.057 11.397-25.455 25.455-25.455V0" transform="translate(4 4)"/>
    </g>
</svg>
