<svg xmlns="http://www.w3.org/2000/svg" width="30" height="30" viewBox="0 0 30 30">
    <g fill="none" fill-rule="evenodd">
        <path fill="#133E56" d="M15.027.11C6.759.11.055 6.815.055 15.086c0 6.616 4.29 12.229 10.239 14.209.748.138 1.023-.325 1.023-.72 0-.358-.014-1.537-.02-2.789-4.166.906-5.045-1.766-5.045-1.766-.68-1.731-1.662-2.191-1.662-2.191-1.359-.93.102-.91.102-.91 1.504.105 2.295 1.542 2.295 1.542 1.336 2.29 3.503 1.628 4.357 1.245.135-.967.523-1.628.95-2.002-3.325-.379-6.82-1.663-6.82-7.4 0-1.635.584-2.971 1.542-4.02-.155-.377-.668-1.9.145-3.963 0 0 1.257-.402 4.119 1.535 1.194-.331 2.475-.498 3.747-.503 1.272.005 2.554.172 3.75.503 2.858-1.937 4.114-1.535 4.114-1.535.815 2.063.302 3.586.147 3.963.96 1.049 1.54 2.385 1.54 4.02 0 5.75-3.502 7.017-6.836 7.388.537.465 1.016 1.376 1.016 2.773 0 2.003-.018 3.616-.018 4.11 0 .398.27.865 1.029.718 5.945-1.983 10.23-7.594 10.23-14.207C29.999 6.815 23.296.11 15.027.11"/>
        <path fill="#FFFFFE" d="M5.726 21.61c-.033.075-.15.097-.257.046-.109-.05-.17-.15-.134-.225.032-.077.149-.098.257-.047.11.05.171.152.134.226M6.332 22.287c-.071.066-.211.035-.306-.07-.098-.104-.116-.244-.044-.31.074-.067.21-.036.308.068.098.106.117.245.042.312M6.922 23.15c-.091.063-.241.003-.334-.13-.092-.133-.092-.293.002-.357.093-.064.24-.006.335.126.091.135.091.295-.003.36M7.731 23.982c-.082.09-.257.066-.385-.057-.13-.12-.167-.292-.085-.383.083-.09.26-.065.388.058.13.12.17.293.082.382M8.847 24.466c-.036.117-.205.17-.374.12-.17-.05-.28-.188-.246-.306.035-.118.204-.174.375-.12.169.05.28.187.245.306M10.072 24.556c.004.123-.14.226-.318.228-.179.004-.323-.096-.325-.218 0-.124.14-.226.32-.229.177-.003.323.096.323.219M11.212 24.362c.022.12-.102.244-.279.277-.174.032-.335-.043-.357-.162-.021-.124.105-.248.278-.28.177-.03.336.042.358.165"/>
    </g>
</svg>
