<svg xmlns="http://www.w3.org/2000/svg" width="16" height="16" viewBox="0 0 16 16">
    <path fill="#FFF" fill-rule="evenodd" d="M8 0l.15.003c1.886.07 3.433 1.478 3.513 3.275l.004.146v1.91H12c1.105 0 2 .895 2 2v6c0 1.064-.833 1.935-1.882 1.996l-.118.003H4c-1.105 0-2-.895-2-2v-6c0-1.104.895-2 2-2h.333V3.424C4.333 1.511 5.995 0 8 0zm0 2c-.901 0-1.606.606-1.663 1.33l-.004.094v1.91h3.334v-1.91l-.004-.095c-.055-.691-.702-1.276-1.547-1.326L8 2zm0 6.333c-.736 0-1.333.597-1.333 1.334 0 .433.206.818.527 1.062l.09.062-.434 1.085c-.016.04-.024.082-.024.124 0 .164.118.3.273.328l.06.005h1.682c.042 0 .084-.008.124-.024.152-.06.234-.22.203-.375l-.018-.058-.434-1.085c.371-.236.617-.652.617-1.124 0-.737-.597-1.334-1.333-1.334z"/>
</svg>
