<svg xmlns="http://www.w3.org/2000/svg" width="278" height="36" viewBox="0 0 278 36">
    <g fill="none" fill-rule="evenodd">
        <path fill="#133E56" fill-rule="nonzero" d="M56.912 26v-8.49c0-1.201.31-2.122.93-2.76.619-.638 1.456-.957 2.51-.957 1.054 0 1.886.32 2.497.957.61.638.915 1.559.915 2.76V26h3.884v-8.49c0-1.201.31-2.122.93-2.76.62-.638 1.456-.957 2.51-.957 1.054 0 1.887.32 2.497.957.61.638.916 1.559.916 2.76V26h3.884v-9.044c0-2.072-.56-3.68-1.679-4.827-1.119-1.147-2.594-1.72-4.425-1.72-1.165 0-2.215.277-3.149.832-.934.555-1.669 1.313-2.205 2.275-.5-.999-1.207-1.767-2.122-2.303-.916-.536-1.956-.804-3.122-.804-2.2 0-3.791.841-4.771 2.524v-2.302H53V26h3.912zm32.32.222c2.256 0 4.148-.73 5.673-2.192 1.526-1.46 2.29-3.375 2.29-5.742 0-2.368-.76-4.273-2.276-5.715-1.516-1.443-3.398-2.164-5.645-2.164-2.248 0-4.13.72-5.646 2.164-1.517 1.442-2.275 3.347-2.275 5.715 0 2.367.75 4.281 2.247 5.742 1.498 1.461 3.376 2.192 5.632 2.192zm0-3.301c-1.091 0-2.016-.398-2.774-1.193-.759-.796-1.138-1.933-1.138-3.413 0-1.48.38-2.617 1.138-3.412.758-.795 1.687-1.193 2.788-1.193 1.1 0 2.039.398 2.816 1.193.777.795 1.165 1.928 1.165 3.398 0 1.47-.393 2.608-1.18 3.413-.785.804-1.724 1.207-2.815 1.207zM104.213 26v-8.49c0-1.201.31-2.122.93-2.76.62-.638 1.456-.957 2.51-.957 1.054 0 1.887.32 2.497.957.61.638.916 1.559.916 2.76V26h3.884v-9.044c0-2.053-.555-3.658-1.665-4.814-1.11-1.155-2.543-1.733-4.3-1.733-2.201 0-3.792.841-4.772 2.524v-2.302h-3.912V26h3.912zm21.584.222c2.256 0 4.148-.73 5.673-2.192 1.526-1.46 2.29-3.375 2.29-5.742 0-2.368-.76-4.273-2.276-5.715-1.516-1.443-3.398-2.164-5.645-2.164-2.248 0-4.13.72-5.646 2.164-1.517 1.442-2.275 3.347-2.275 5.715 0 2.367.75 4.281 2.247 5.742 1.498 1.461 3.376 2.192 5.632 2.192zm0-3.301c-1.091 0-2.016-.398-2.774-1.193-.759-.796-1.138-1.933-1.138-3.413 0-1.48.38-2.617 1.138-3.412.758-.795 1.687-1.193 2.788-1.193 1.1 0 2.039.398 2.816 1.193.777.795 1.165 1.928 1.165 3.398 0 1.47-.393 2.608-1.18 3.413-.785.804-1.724 1.207-2.815 1.207zM141 26V13.82h2.441v-3.19H141v-.86c0-.74.166-1.266.5-1.58.332-.315.906-.472 1.72-.472V4.444c-2.109 0-3.653.425-4.634 1.276-.98.85-1.47 2.201-1.47 4.05v.86h-1.665v3.19h1.665V26H141zm11.957.222c2.257 0 4.148-.73 5.674-2.192 1.525-1.46 2.288-3.375 2.288-5.742 0-2.368-.758-4.273-2.275-5.715-1.516-1.443-3.398-2.164-5.645-2.164-2.247 0-4.13.72-5.646 2.164-1.517 1.442-2.275 3.347-2.275 5.715 0 2.367.75 4.281 2.247 5.742 1.498 1.461 3.376 2.192 5.632 2.192zm0-3.301c-1.091 0-2.016-.398-2.774-1.193-.758-.796-1.138-1.933-1.138-3.413 0-1.48.38-2.617 1.138-3.412.758-.795 1.688-1.193 2.788-1.193 1.1 0 2.04.398 2.816 1.193.777.795 1.165 1.928 1.165 3.398 0 1.47-.393 2.608-1.179 3.413-.786.804-1.725 1.207-2.816 1.207zM167.938 26v-8.49c0-1.201.31-2.122.93-2.76.62-.638 1.456-.957 2.51-.957 1.055 0 1.887.32 2.497.957.61.638.916 1.559.916 2.76V26h3.884v-9.044c0-2.053-.555-3.658-1.665-4.814-1.11-1.155-2.543-1.733-4.3-1.733-2.201 0-3.792.841-4.772 2.524v-2.302h-3.912V26h3.912zm19.78 7.269l9.6-22.638h-4.078l-4.134 10.93-3.912-10.93h-4.383l6.02 15.092-3.19 7.546h4.078z"/>
        <path fill="#4BAEB4" fill-rule="nonzero" d="M206.324 26.277c1.369 0 2.57-.337 3.607-1.012 1.035-.675 1.803-1.54 2.302-2.594V26h1.942V5.47h-1.942v8.684c-.5-1.054-1.267-1.914-2.302-2.58-1.036-.666-2.238-.999-3.607-.999-2.127 0-3.88.707-5.257 2.122-1.378 1.415-2.067 3.283-2.067 5.604 0 2.322.694 4.231 2.08 5.73 1.388 1.497 3.136 2.246 5.244 2.246zm.291-1.664c-1.544 0-2.866-.587-3.967-1.762-1.1-1.174-1.65-2.69-1.65-4.55 0-1.858.545-3.333 1.636-4.425 1.092-1.09 2.414-1.636 3.968-1.636 1.553 0 2.88.568 3.98 1.706 1.101 1.137 1.651 2.63 1.651 4.48 0 1.85-.555 3.348-1.664 4.495-1.091 1.128-2.41 1.692-3.954 1.692zm18.047 1.664c1.757 0 3.2-.42 4.328-1.262 1.128-.841 1.942-1.91 2.441-3.204h-2.08c-.315.87-.884 1.572-1.707 2.108-.823.537-1.817.805-2.982.805-1.498 0-2.737-.5-3.717-1.498-.98-.999-1.508-2.368-1.582-4.106h12.484c.074-.463.111-.962.111-1.498 0-1.998-.647-3.672-1.942-5.022-1.294-1.35-3.037-2.025-5.23-2.025-2.19 0-3.976.717-5.353 2.15-1.378 1.433-2.067 3.33-2.067 5.687 0 2.358.675 4.259 2.025 5.701 1.35 1.443 3.107 2.164 5.271 2.164zm5.299-8.683h-10.598c.093-1.702.634-3.038 1.623-4.009.99-.97 2.229-1.456 3.718-1.456 1.489 0 2.737.494 3.745 1.484s1.512 2.316 1.512 3.98zM237.063 26v-8.656c0-1.664.402-2.931 1.207-3.8.804-.87 1.905-1.304 3.301-1.304 1.397 0 2.497.434 3.302 1.304.804.869 1.206 2.136 1.206 3.8V26h1.915v-8.656c0-1.664.402-2.931 1.207-3.8.804-.87 1.905-1.304 3.3-1.304 1.397 0 2.498.434 3.302 1.304.805.869 1.207 2.136 1.207 3.8V26h1.914v-9.016c0-2.072-.564-3.658-1.692-4.758-1.128-1.1-2.534-1.651-4.217-1.651-1.258 0-2.372.296-3.343.888-.97.592-1.715 1.424-2.233 2.497-.463-1.11-1.17-1.952-2.122-2.525-.953-.573-2.03-.86-3.233-.86-2.33 0-4.004.916-5.02 2.747v-2.47h-1.943V26h1.942zm32.237.277c2.183 0 4.032-.73 5.549-2.191 1.516-1.461 2.275-3.352 2.275-5.674 0-2.32-.722-4.207-2.164-5.66-1.443-1.451-3.246-2.177-5.41-2.177s-3.967.726-5.41 2.178-2.164 3.347-2.164 5.687c0 2.34.68 4.23 2.04 5.673 1.359 1.443 3.12 2.164 5.284 2.164zm0-1.553c-1.572 0-2.857-.555-3.856-1.665-.999-1.11-1.498-2.654-1.498-4.633s.527-3.523 1.581-4.633c1.054-1.11 2.367-1.664 3.94-1.664 1.572 0 2.903.56 3.995 1.678 1.09 1.119 1.636 2.654 1.636 4.605 0 1.952-.573 3.491-1.72 4.62-1.146 1.128-2.506 1.692-4.078 1.692z"/>
        <path fill="#4BAEB4" d="M16.888.844c3.124-1.476 7.027-.798 9.111.593.99.66 2.423 1.85 3.504 3.712.077.132.186.248.318.324l1.722 1.018c.526.311.899.807 1.05 1.397.153.592.066 1.206-.245 1.732-.166.282-.388.52-.656.71l-.686.479c.032 2.182-.453 4.776-1.766 7.842-1.56 3.641-4.8 6.949-9.31 8.507-.372.129-.628.47-.628.862v4.253h1.37c.757 0 1.37.613 1.37 1.37 0 .757-.613 1.371-1.37 1.371H10.623c-.757 0-1.37-.614-1.37-1.37 0-.758.613-1.371 1.37-1.371h1.37V28.16c0-.067.01-.13.02-.193-1.362-.147-2.776-.42-4.253-.869-.116-.036-.22-.09-.319-.15-1.65.516-3.367.787-5.04.787-.337 0-.671-.01-1.004-.033-.134-.009-.259-.043-.379-.087l-.046-.018c-.139-.057-.266-.133-.377-.231-.013-.01-.023-.022-.036-.033-.109-.101-.203-.218-.274-.349-.007-.015-.012-.03-.02-.042-.069-.14-.117-.289-.135-.448l-.004-.01c-.493-4.442.473-8.816 2.721-12.314 2.094-3.256 5.145-5.424 8.702-6.255.36-.083.633-.365.71-.726.812-3.772 2.905-5.53 4.629-6.346zm-.327 27.096c-.596.078-1.208.123-1.835.142.002.027.008.052.008.079v4.112h1.827zm7.918-24.222c-1.214-.81-4.093-1.496-6.42-.395-1.917.907-3.04 2.854-3.331 5.787-.003.027-.012.051-.016.077-.01.063-.02.128-.038.187-.011.033-.027.062-.039.094-.02.051-.039.104-.065.154-.019.034-.042.064-.064.096-.026.04-.052.084-.083.122-.029.037-.064.067-.096.1-.029.028-.055.06-.086.086-.05.042-.105.076-.161.111-.017.012-.034.025-.052.035-.163.091-.343.15-.534.168-4.387.495-6.958 3.162-8.341 5.314-1.683 2.617-2.525 5.963-2.386 9.333 5.308-.146 11.223-3.599 11.98-8.897.108-.75.807-1.263 1.55-1.164.75.107 1.27.802 1.164 1.55-.533 3.729-2.92 6.691-6.044 8.643 7.744 1.198 13.276-2.817 15.303-7.548.762-1.778 1.191-3.342 1.395-4.737.12-.822.156-1.58.126-2.28-.017-.4.154-.786.483-1.017l1.006-.705c.054-.037.098-.085.132-.141.064-.109.077-.233.05-.347-.015-.056-.041-.11-.077-.159-.034-.046-.08-.088-.135-.12L27.628 6.84c-.32-.189-.579-.462-.785-.772-.5-.75-1.076-1.347-1.644-1.812-.245-.2-.488-.385-.72-.539zm-.61 3.428c.757 0 1.37.614 1.37 1.37 0 .757-.613 1.371-1.37 1.371-.757 0-1.37-.614-1.37-1.37 0-.757.613-1.37 1.37-1.37z"/>
    </g>
</svg>
