<svg xmlns="http://www.w3.org/2000/svg" width="281" height="46" viewBox="0 0 281 46">
    <g fill="none" fill-rule="evenodd">
        <text fill="#133E56" font-family="Poppins" font-size="27.743" font-weight="600">
            <tspan x="53.216" y="31">monofony</tspan>
        </text>
        <text fill="#4BAEB4" font-family="Poppins" font-size="27.743" font-weight="300">
            <tspan x="200" y="31">demo</tspan>
        </text>
        <path fill="#4BAEB4" d="M17.037 5.852c3.152-1.49 7.089-.806 9.192.598.998.664 2.444 1.867 3.534 3.744.078.134.188.25.32.328l1.738 1.026c.53.314.907.814 1.06 1.41.154.596.066 1.216-.247 1.747-.168.285-.392.525-.663.716l-.69.483c.03 2.201-.458 4.818-1.783 7.911-1.574 3.674-4.843 7.01-9.392 8.582-.375.13-.634.474-.634.87v4.29h1.382c.764 0 1.383.62 1.383 1.383 0 .764-.619 1.383-1.383 1.383H10.717c-.764 0-1.382-.62-1.382-1.383 0-.764.618-1.382 1.382-1.382h1.382v-4.149c0-.067.01-.13.02-.194-1.374-.148-2.8-.424-4.29-.877-.117-.037-.223-.09-.322-.152-1.665.521-3.397.795-5.084.795-.34 0-.678-.011-1.014-.033-.135-.01-.26-.044-.382-.088l-.047-.018c-.14-.058-.268-.135-.38-.234-.013-.01-.023-.022-.036-.033-.11-.102-.205-.22-.277-.352-.007-.015-.012-.03-.019-.042-.07-.141-.119-.292-.137-.452l-.004-.01c-.498-4.482.477-8.894 2.745-12.423 2.113-3.285 5.19-5.472 8.78-6.31.362-.084.637-.368.715-.732.82-3.806 2.931-5.58 4.67-6.402zm-.33 27.334c-.6.079-1.218.125-1.851.144.002.027.008.052.008.08v4.148h1.843zm7.988-24.435c-1.224-.817-4.13-1.51-6.476-.398-1.935.914-3.067 2.878-3.361 5.837-.003.027-.012.052-.016.078-.011.063-.02.129-.039.189-.01.033-.027.062-.039.095-.02.051-.04.105-.066.155-.018.034-.042.064-.063.096-.027.042-.053.085-.084.124-.03.037-.065.067-.098.1-.029.029-.055.061-.087.087-.05.042-.106.078-.162.113l-.052.035c-.164.092-.346.152-.539.17-4.426.499-7.02 3.189-8.415 5.36-1.697 2.64-2.547 6.015-2.407 9.415 5.356-.147 11.323-3.63 12.087-8.975.108-.757.814-1.275 1.564-1.174.755.108 1.28.808 1.173 1.564-.537 3.761-2.945 6.75-6.097 8.719 7.812 1.208 13.393-2.842 15.438-7.615.769-1.793 1.202-3.372 1.407-4.78.122-.828.158-1.592.128-2.298-.018-.405.154-.794.486-1.027l1.016-.71c.054-.039.098-.087.132-.144.065-.11.079-.235.05-.35-.015-.056-.04-.11-.076-.16-.035-.046-.081-.089-.137-.121l-2.09-1.234c-.322-.191-.584-.467-.792-.78-.504-.755-1.086-1.358-1.658-1.827-.247-.202-.492-.388-.727-.544zm-.615 3.458c.763 0 1.382.62 1.382 1.383s-.62 1.383-1.382 1.383c-.764 0-1.383-.62-1.383-1.383s.619-1.383 1.383-1.383z"/>
    </g>
</svg>
