<svg xmlns="http://www.w3.org/2000/svg" width="30" height="30" viewBox="0 0 30 30">
    <g fill="none" fill-rule="evenodd">
        <circle cx="15" cy="15" r="15" fill="#133E56"/>
        <path fill="#F4F8F9" d="M22.59 17.59c-.623 1.103-1.162 3.694-3.81 4.794-2.65 1.098-4.992-1.017-7.08.998-1.038 1.004-2.39 2.404-2.965 1.072 0 0-.651-1.67.772-3.045s1.07-2.468.408-4.56C9.432 15.323 5.06 7.014 5.536 5.667c.299-1.07 1.493-.73 2.086.168.594.897 2.976 5.333 3.8 6.017.919.762-.14-1.272.334-2.261.346-.725 2.01-.43 2.725 1.156.715 1.588.582.393.868-.012.285-.405 1.036-.725 2.35.606 1.533 1.553 1.803 1.368 2.035 1.232.232-.136 1.254-.959 3.037.048.77.445.995 1.047 1.97 1.133.976.086 1.003.506.125.896-1.239.55-2.277 2.942-2.277 2.942"/>
    </g>
</svg>
