<svg xmlns="http://www.w3.org/2000/svg" width="1481" height="610" viewBox="0 0 1481 610">
    <g fill="#4BAEB4" fill-opacity=".2">
        <path d="M889.485 452.969l.373.205 24.903 11.981c4.592 2.208 7.587 6.775 7.781 11.867.19 4.978-2.326 9.66-6.56 12.252l-.292.174-.019.008c-.889.505-1.827.906-2.8 1.2-.102.031-.2.072-.304.101-.926.259-1.876.419-2.836.477-.19.014-.376.025-.568.03-.2.005-.393.034-.593.03-11.373-.204-21.928 5.89-27.436 15.841-.2.371-.438.72-.71 1.042-3.485 5.157-10.007 7.318-15.882 5.264-5.773-2.018-9.497-7.608-9.164-13.688l.022-.326 2.078-27.563c.078-7.679 4.206-14.746 10.857-18.584 6.528-3.768 14.533-3.876 21.15-.311zm-50.243 14.103l.16.266 4.582 7.939c3.165 5.48 1.287 12.488-4.194 15.652-5.39 3.113-12.258 1.347-15.493-3.927l-.159-.267-4.583-7.938c-3.164-5.48-1.287-12.488 4.194-15.653 5.39-3.112 12.259-1.346 15.493 3.928zm10.066-37.566l.159.267 4.583 7.938c3.144 5.483 1.27 12.476-4.194 15.653-5.393 3.092-12.247 1.33-15.493-3.929l-.16-.265-4.583-7.939c-3.164-5.48-1.286-12.488 4.194-15.652 5.391-3.113 12.26-1.347 15.494 3.927zm46.899-15.357c5.483-3.144 12.476-1.27 15.652 4.194l4.584 7.939c3.164 5.48 1.286 12.488-4.194 15.652-5.48 3.164-12.489 1.287-15.653-4.194l-4.583-7.938c-3.144-5.483-1.27-12.477 4.194-15.653zm-19.114-.685l.159.267 4.583 7.939c3.144 5.483 1.27 12.476-4.194 15.652-5.393 3.093-12.247 1.33-15.493-3.928l-.16-.266-4.583-7.939c-3.164-5.48-1.286-12.488 4.194-15.652 5.391-3.112 12.26-1.347 15.494 3.927zM1275.303 70.98c-.404 9.566 4.275 18.633 12.306 23.847 8.03 5.213 18.217 5.797 26.79 1.535l31.787-13.291c5.862-2.45 9.888-7.94 10.462-14.267.575-6.327-2.396-12.453-7.72-15.918l-.023-.011c-1.074-.688-2.216-1.248-3.408-1.676-.125-.047-.244-.104-.372-.147-1.136-.383-2.309-.644-3.5-.78-.235-.029-.467-.055-.705-.073-.248-.02-.487-.068-.737-.078-14.172-.487-26.916-8.763-33.126-21.512-.224-.475-.497-.925-.816-1.343-4.002-6.648-11.981-9.765-19.43-7.59-7.449 2.174-12.498 9.094-12.296 16.85zm44.293 48.026c-4.273 6.622-2.396 15.45 4.2 19.762 6.622 4.272 15.45 2.396 19.762-4.2l6.224-9.586c4.297-6.617 2.417-15.464-4.2-19.761-6.617-4.297-15.465-2.417-19.762 4.2zm-47.428 10.081c-4.297 6.617-2.417 15.465 4.2 19.762 6.617 4.297 15.465 2.416 19.762-4.2l6.224-9.586c4.273-6.621 2.396-15.45-4.2-19.761-6.622-4.273-15.45-2.396-19.762 4.2zm-43.628-69.213c-4.297 6.617-2.417 15.464 4.2 19.761 6.617 4.297 15.465 2.417 19.762-4.2l6.224-9.585c4.297-6.617 2.417-15.464-4.2-19.761-6.617-4.298-15.465-2.417-19.762 4.2zm10.081 47.428c-4.297 6.617-2.416 15.464 4.2 19.761 6.617 4.297 15.465 2.417 19.762-4.2l6.224-9.585c4.273-6.622 2.396-15.45-4.2-19.762-6.621-4.272-15.45-2.396-19.762 4.2zM45.7 149.641c9.03-3.183 19.069-1.36 26.402 4.796 7.334 6.155 10.87 15.726 9.301 25.17l-3.417 34.285c-.63 6.321-4.702 11.777-10.584 14.176-5.883 2.4-12.61 1.349-17.48-2.73l-.018-.018c-.971-.826-1.84-1.754-2.599-2.769-.08-.106-.17-.203-.249-.313-.698-.974-1.29-2.02-1.768-3.119-.097-.216-.19-.43-.277-.653-.091-.23-.207-.445-.29-.681-4.609-13.411-16.25-23.178-30.256-25.39-.52-.075-1.031-.205-1.524-.387C5.414 190.124.1 183.405.001 175.646c-.098-7.759 5.043-14.61 12.52-16.685zm58.877 28.316c5.083-6.022 14.075-6.809 20.126-1.761 6.022 5.083 6.809 14.075 1.761 20.126l-7.346 8.755c-5.072 6.044-14.082 6.832-20.126 1.76-6.044-5.07-6.833-14.082-1.761-20.125zm-4.226-48.303c5.072-6.044 14.082-6.832 20.126-1.76 6.044 5.07 6.833 14.081 1.761 20.125l-7.346 8.755c-5.083 6.022-14.075 6.809-20.126 1.76-6.022-5.082-6.809-14.074-1.761-20.125zm-78.945-21.486c5.072-6.044 14.083-6.832 20.127-1.76 6.044 5.071 6.832 14.082 1.76 20.126l-7.346 8.754c-5.071 6.044-14.082 6.833-20.126 1.761-6.044-5.071-6.832-14.082-1.76-20.126zm48.303-4.226c5.072-6.044 14.083-6.832 20.126-1.76 6.044 5.071 6.833 14.082 1.761 20.126l-7.346 8.755c-5.083 6.021-14.075 6.808-20.126 1.76-6.022-5.083-6.808-14.074-1.76-20.126zM173.299 269.667c-.737.025-1.472.097-2.2.215.125-.722.202-1.45.231-2.182 0-9.775-7.933-17.7-17.719-17.7-9.785 0-17.718 7.925-17.718 17.7.013 4.05 1.431 7.971 4.014 11.093l-46.066 46.018c-3.125-2.58-7.05-3.997-11.105-4.01-9.785 0-17.718 7.924-17.718 17.7 0 9.775 7.933 17.7 17.718 17.7.733-.03 1.462-.107 2.184-.23-.118.726-.19 1.46-.215 2.197-.057 7.814 5.021 14.741 12.496 17.044 7.475 2.304 15.578-.562 19.936-7.051 4.36-6.489 3.943-15.065-1.024-21.102l46.066-46.017c3.128 2.587 7.058 4.01 11.12 4.025 9.786 0 17.719-7.925 17.719-17.7 0-9.776-7.933-17.7-17.72-17.7zM663.688 574.296c-.167-.549-.369-1.086-.604-1.61.567-.052 1.13-.14 1.685-.265 7.344-1.968 11.701-9.523 9.731-16.875-1.97-7.352-9.52-11.717-16.864-9.749-3.04.825-5.7 2.68-7.526 5.25l-43.845-25.345c1.309-2.868 1.583-6.102.777-9.15-1.97-7.352-9.52-11.717-16.865-9.749-7.344 1.968-11.7 9.523-9.73 16.875.17.544.375 1.076.612 1.594-.57.058-1.135.152-1.694.28-5.882 1.53-10.064 6.74-10.29 12.82-.225 6.08 3.56 11.59 9.311 13.558 5.753 1.968 12.112-.07 15.648-5.018l43.844 25.345c-1.313 2.871-1.591 6.11-.785 9.165 1.97 7.352 9.52 11.716 16.864 9.748 7.344-1.968 11.701-9.523 9.731-16.874zM1444.37 263.421c-.506-.27-1.03-.507-1.565-.71.364-.438.7-.899 1.004-1.38 3.801-6.585 1.54-15.008-5.052-18.813-6.591-3.806-15.017-1.553-18.818 5.032-1.567 2.733-2.136 5.925-1.61 9.033l-48.925 13.082c-1.102-2.954-3.194-5.435-5.92-7.02-6.592-3.806-15.017-1.553-18.819 5.032-3.801 6.584-1.54 15.007 5.052 18.813.505.264 1.026.496 1.56.694-.362.444-.695.91-.999 1.396-3.077 5.241-2.35 11.882 1.789 16.34 4.139 4.459 10.711 5.68 16.17 3.004 5.46-2.676 8.515-8.614 7.517-14.612l48.924-13.082c1.101 2.96 3.195 5.446 5.925 7.036 6.591 3.806 15.017 1.553 18.818-5.032 3.802-6.584 1.54-15.007-5.051-18.813zM1453.238 159.407c8.857-4.513 19.697-.991 24.21 7.866 4.513 8.858.991 19.697-7.867 24.21-8.857 4.513-19.696.992-24.21-7.866-4.513-8.858-.99-19.697 7.867-24.21zm-33.577-9.052c4.182-2.131 9.3-.468 11.432 3.714 2.131 4.183.468 9.302-3.715 11.433-4.182 2.131-9.3.468-11.432-3.715-2.131-4.183-.468-9.301 3.715-11.432zm20.496-30.99c6.15-3.134 13.678-.688 16.812 5.463 3.134 6.15.689 13.678-5.462 16.812-6.152 3.134-13.679.689-16.813-5.462-3.134-6.152-.688-13.679 5.463-16.813zM263.59 113.652c6.39 7.616 5.396 18.97-2.219 25.36-7.615 6.39-18.969 5.396-25.359-2.22-6.39-7.615-5.397-18.968 2.219-25.358 7.615-6.39 18.969-5.397 25.359 2.218zm-39.496-28.364c4.437 5.288 3.747 13.173-1.541 17.61-5.289 4.438-13.173 3.748-17.61-1.54-4.438-5.289-3.748-13.173 1.54-17.611 5.289-4.437 13.173-3.748 17.61 1.54zm30.899-7.251c3.017 3.596 2.548 8.957-1.048 11.975-3.596 3.017-8.957 2.548-11.975-1.048-3.017-3.596-2.548-8.958 1.048-11.975 3.596-3.018 8.957-2.549 11.975 1.048zM306.95 281.868c10.953 5.814 15.115 19.384 9.296 30.309-5.818 10.924-19.415 15.068-30.368 9.254s-15.115-19.384-9.297-30.308c5.82-10.925 19.416-15.068 30.369-9.255zm44.875 40.769c7.607 4.037 10.497 13.46 6.456 21.047-4.04 7.587-13.483 10.464-21.09 6.427-7.605-4.038-10.496-13.461-6.455-21.048 4.04-7.586 13.483-10.464 21.09-6.426zm.82-39.502c5.172 2.745 7.138 9.153 4.39 14.312-2.748 5.159-9.168 7.115-14.34 4.37-5.173-2.745-7.138-9.153-4.39-14.312 2.747-5.16 9.168-7.116 14.34-4.37zM489.965 65.152c-.228.627-.495 1.239-.8 1.832.656.095 1.304.233 1.942.412 8.412 2.733 13.013 11.775 10.277 20.195-2.736 8.42-11.773 13.031-20.185 10.298-3.482-1.144-6.458-3.46-8.423-6.556l-52.477 26.773c1.347 3.41 1.469 7.184.346 10.677-2.736 8.42-11.773 13.03-20.184 10.298-8.412-2.734-13.013-11.775-10.277-20.196.231-.621.501-1.227.81-1.815-.66-.101-1.311-.245-1.952-.429-6.74-2.135-11.28-8.442-11.173-15.518.108-7.076 4.84-13.247 11.642-15.183 6.802-1.937 14.065.82 17.871 6.781L459.86 65.95c-1.352-3.416-1.477-7.195-.355-10.695 2.736-8.42 11.773-13.03 20.184-10.298 8.412 2.734 13.013 11.775 10.277 20.196zM1217.702 317.808c-7.604-5.817-17.716-7.186-26.593-3.598-8.876 3.588-15.198 11.598-16.624 21.065l-7.344 33.662c-1.355 6.207.833 12.654 5.686 16.753 4.853 4.1 11.575 5.18 17.467 2.806l.022-.012c1.18-.486 2.293-1.1 3.328-1.83.11-.076.225-.141.334-.221.965-.71 1.851-1.522 2.645-2.42.16-.176.313-.351.465-.536.158-.191.335-.359.486-.559 8.528-11.33 22.617-17.022 36.622-14.796.518.09 1.043.123 1.568.102 7.742.535 14.872-4.213 17.363-11.562 2.492-7.35-.28-15.454-6.751-19.738zm-64.746 8.736c-2.974-7.298-11.282-10.825-18.597-7.894-7.298 2.973-10.825 11.282-7.894 18.597l4.281 10.596c2.956 7.315 11.282 10.85 18.597 7.894 7.315-2.956 10.85-11.282 7.894-18.597zm18.945-44.633c-2.955-7.315-11.281-10.85-18.597-7.894-7.315 2.955-10.85 11.282-7.894 18.597l4.282 10.596c2.973 7.298 11.282 10.825 18.597 7.894 7.297-2.973 10.824-11.282 7.894-18.597zm81.72 3.961c-2.955-7.315-11.281-10.85-18.597-7.894-7.315 2.956-10.849 11.282-7.893 18.597l4.28 10.596c2.956 7.316 11.282 10.85 18.598 7.894 7.315-2.955 10.85-11.281 7.894-18.597zm-44.632-18.945c-2.956-7.316-11.282-10.85-18.597-7.894-7.316 2.955-10.85 11.281-7.894 18.597l4.28 10.596c2.974 7.298 11.283 10.825 18.598 7.894 7.298-2.973 10.824-11.282 7.894-18.597z" transform="translate(.982)"/>
    </g>
</svg>
