<svg xmlns="http://www.w3.org/2000/svg" width="951" height="599" viewBox="0 0 951 599">
    <g fill="#4BAEB4" fill-opacity=".2">
        <path d="M899.468 429.969l.373.205 24.903 11.981c4.592 2.208 7.586 6.775 7.78 11.867.19 4.978-2.326 9.66-6.56 12.252l-.292.174-.018.008c-.89.505-1.827.906-2.8 1.2-.103.031-.2.072-.305.101-.925.259-1.876.419-2.836.477-.19.014-.376.025-.568.03-.199.005-.392.034-.593.03-11.372-.204-21.927 5.89-27.436 15.841-.2.371-.438.72-.71 1.042-3.485 5.157-10.007 7.318-15.882 5.264-5.772-2.018-9.497-7.608-9.163-13.688l.022-.326 2.077-27.563c.078-7.679 4.206-14.746 10.857-18.584 6.528-3.768 14.533-3.876 21.15-.311zm-50.243 14.103l.158.266 4.584 7.939c3.164 5.48 1.286 12.488-4.194 15.652-5.39 3.113-12.26 1.347-15.494-3.927l-.159-.267-4.583-7.938c-3.164-5.48-1.286-12.488 4.194-15.653 5.39-3.112 12.259-1.346 15.494 3.928zm10.065-37.566l.16.267 4.582 7.938c3.145 5.483 1.271 12.476-4.194 15.653-5.393 3.092-12.247 1.33-15.493-3.929l-.159-.265-4.583-7.939c-3.164-5.48-1.287-12.488 4.194-15.652 5.39-3.113 12.259-1.347 15.493 3.927zm46.9-15.357c5.482-3.144 12.475-1.27 15.652 4.194l4.583 7.939c3.164 5.48 1.286 12.488-4.194 15.652-5.48 3.164-12.488 1.287-15.652-4.194l-4.584-7.938c-3.144-5.483-1.27-12.477 4.194-15.653zm-19.115-.685l.16.267 4.582 7.939c3.145 5.483 1.271 12.476-4.194 15.652-5.393 3.093-12.247 1.33-15.493-3.928l-.159-.266-4.583-7.939c-3.164-5.48-1.287-12.488 4.194-15.652 5.39-3.112 12.259-1.347 15.493 3.927zM370.649 517.93c7.604-5.817 17.715-7.185 26.592-3.598 8.877 3.588 15.198 11.598 16.624 21.065l7.345 33.662c1.355 6.207-.833 12.654-5.686 16.753-4.853 4.1-11.575 5.18-17.468 2.806l-.022-.012c-1.18-.485-2.293-1.1-3.328-1.83-.11-.076-.225-.14-.333-.22-.965-.712-1.852-1.523-2.646-2.42-.159-.177-.313-.352-.465-.536-.158-.192-.335-.36-.486-.56-8.528-11.33-22.617-17.022-36.622-14.795-.517.088-1.043.123-1.568.102-7.741.534-14.871-4.214-17.363-11.563-2.491-7.349.281-15.454 6.752-19.738zm64.746 8.736c2.973-7.298 11.282-10.825 18.597-7.894 7.297 2.973 10.824 11.282 7.894 18.597l-4.282 10.596c-2.955 7.316-11.281 10.85-18.597 7.894-7.315-2.955-10.85-11.282-7.894-18.597zm-18.946-44.633c2.956-7.315 11.282-10.85 18.597-7.894 7.315 2.956 10.85 11.282 7.894 18.597l-4.281 10.596c-2.974 7.298-11.282 10.825-18.597 7.894-7.298-2.973-10.825-11.282-7.894-18.597zm-81.72 3.961c2.955-7.315 11.282-10.85 18.597-7.894 7.315 2.956 10.85 11.282 7.894 18.597l-4.281 10.597c-2.956 7.315-11.282 10.85-18.597 7.894-7.316-2.956-10.85-11.282-7.894-18.597zm44.633-18.945c2.955-7.316 11.281-10.85 18.597-7.894 7.315 2.955 10.85 11.281 7.894 18.597l-4.282 10.596c-2.973 7.298-11.282 10.825-18.597 7.894-7.297-2.973-10.824-11.282-7.894-18.597zM633.286 70.98c-.404 9.566 4.275 18.633 12.305 23.847 8.03 5.213 18.217 5.797 26.79 1.535l31.788-13.291c5.86-2.45 9.887-7.94 10.462-14.267.574-6.327-2.397-12.453-7.721-15.918l-.023-.011c-1.074-.688-2.215-1.248-3.408-1.676-.125-.047-.244-.104-.372-.147-1.135-.383-2.309-.644-3.5-.78-.235-.029-.467-.055-.705-.073-.248-.02-.486-.068-.737-.078-14.172-.487-26.916-8.763-33.125-21.512-.224-.475-.498-.925-.816-1.343-4.003-6.648-11.982-9.765-19.43-7.59-7.45 2.174-12.499 9.094-12.296 16.85zm44.292 48.026c-4.273 6.622-2.396 15.45 4.2 19.762 6.622 4.272 15.45 2.396 19.762-4.2l6.224-9.586c4.298-6.617 2.417-15.464-4.2-19.761-6.617-4.297-15.465-2.417-19.762 4.2zm-47.428 10.081c-4.297 6.617-2.416 15.465 4.2 19.762 6.618 4.297 15.465 2.416 19.762-4.2l6.225-9.586c4.272-6.621 2.396-15.45-4.2-19.761-6.622-4.273-15.451-2.396-19.762 4.2zm-43.628-69.213c-4.297 6.617-2.416 15.464 4.2 19.761 6.618 4.297 15.465 2.417 19.762-4.2l6.225-9.585c4.297-6.617 2.416-15.464-4.2-19.761-6.618-4.298-15.465-2.417-19.762 4.2zm10.081 47.428c-4.297 6.617-2.416 15.464 4.2 19.761 6.618 4.297 15.465 2.417 19.762-4.2l6.225-9.585c4.272-6.622 2.396-15.45-4.2-19.762-6.622-4.272-15.451-2.396-19.762 4.2zM104.748 135.535c6.051 5.048 15.043 4.26 20.126-1.76l7.346-8.756c5.072-6.044 4.284-15.054-1.76-20.126-6.044-5.071-15.055-4.283-20.127 1.76l-7.346 8.756c-5.047 6.051-4.26 15.043 1.761 20.126zM74.106 109.823c6.052 5.048 15.043 4.261 20.126-1.76l7.347-8.755c5.071-6.044 4.283-15.055-1.761-20.126-6.044-5.072-15.055-4.284-20.126 1.76l-7.347 8.755c-5.047 6.052-4.26 15.043 1.761 20.126zM134.686 153.196c-6.052-5.048-15.044-4.261-20.127 1.76l-7.346 8.756c-5.071 6.043-4.283 15.054 1.761 20.126 6.044 5.071 15.055 4.283 20.126-1.761l7.346-8.755c5.048-6.051 4.261-15.043-1.76-20.126zM91.386 156.608c1.569-9.445-1.968-19.016-9.302-25.171-7.333-6.155-17.373-7.979-26.402-4.796l-33.178 9.32c-7.477 2.074-12.619 8.926-12.52 16.685.098 7.76 5.412 14.478 12.94 16.362.492.182 1.003.312 1.523.388 14.007 2.21 25.647 11.978 30.257 25.389.082.236.198.45.29.681.087.223.18.437.276.653.478 1.1 1.07 2.145 1.768 3.12.079.109.168.206.25.312.758 1.015 1.627 1.943 2.59 2.766l.009.003.017.019c4.87 4.078 11.598 5.128 17.48 2.729 5.882-2.4 9.955-7.855 10.584-14.176l3.418-34.284zM45.93 112.288l7.346-8.754c5.071-6.044 4.283-15.055-1.761-20.126-6.044-5.072-15.055-4.284-20.126 1.76l-7.346 8.755c-5.072 6.044-4.283 15.055 1.76 20.126 6.044 5.072 15.055 4.283 20.127-1.76zM108.281 455.667c-.737.025-1.471.097-2.2.215.125-.722.202-1.45.231-2.182 0-9.775-7.932-17.7-17.718-17.7s-17.719 7.925-17.719 17.7c.013 4.05 1.432 7.971 4.014 11.093l-46.065 46.018c-3.126-2.58-7.05-3.997-11.105-4.01C7.933 506.8 0 514.725 0 524.5c0 9.775 7.933 17.7 17.719 17.7.732-.03 1.461-.107 2.184-.23-.118.726-.19 1.46-.215 2.197-.058 7.814 5.02 14.741 12.495 17.044 7.476 2.304 15.578-.562 19.937-7.051 4.359-6.489 3.942-15.065-1.025-21.102l46.066-46.017c3.129 2.587 7.059 4.01 11.12 4.025 9.786 0 17.719-7.925 17.719-17.7 0-9.776-7.933-17.7-17.719-17.7zM673.67 551.296c-.167-.549-.369-1.086-.604-1.61.567-.052 1.13-.14 1.686-.265 7.344-1.968 11.7-9.523 9.73-16.875-1.97-7.352-9.52-11.717-16.864-9.749-3.04.825-5.7 2.68-7.526 5.25l-43.845-25.345c1.309-2.868 1.584-6.102.777-9.15-1.97-7.352-9.52-11.717-16.864-9.749-7.344 1.968-11.701 9.523-9.731 16.875.17.544.375 1.076.613 1.594-.57.058-1.136.152-1.694.28-5.882 1.53-10.064 6.74-10.29 12.82-.226 6.08 3.558 11.59 9.31 13.558 5.753 1.968 12.112-.07 15.648-5.018l43.845 25.345c-1.314 2.871-1.592 6.11-.786 9.165 1.97 7.352 9.52 11.716 16.865 9.748 7.344-1.968 11.7-9.523 9.73-16.874zM931.352 248.421c-.506-.27-1.029-.507-1.565-.71.364-.438.7-.899 1.004-1.38 3.801-6.585 1.54-15.008-5.052-18.813-6.591-3.806-15.016-1.553-18.818 5.032-1.566 2.733-2.135 5.925-1.61 9.033l-48.924 13.082c-1.103-2.954-3.195-5.434-5.92-7.02-6.592-3.806-15.018-1.553-18.82 5.032-3.8 6.584-1.54 15.007 5.052 18.813.505.264 1.027.496 1.561.694-.362.444-.696.91-1 1.396-3.077 5.241-2.35 11.882 1.79 16.34 4.138 4.459 10.71 5.68 16.17 3.004 5.46-2.676 8.514-8.614 7.516-14.612l48.924-13.082c1.102 2.96 3.196 5.446 5.925 7.036 6.592 3.806 15.017 1.553 18.819-5.032 3.801-6.584 1.54-15.007-5.052-18.813zM711.881 440.309c6.682-3.275 14.74-.487 18 6.229 3.259 6.715.484 14.814-6.198 18.09-6.682 3.275-14.74.486-18-6.23-3.258-6.715-.483-14.814 6.198-18.09zm26.87-25.846c4.571-2.241 10.085-.333 12.315 4.262 2.23 4.594.331 10.136-4.24 12.377-4.572 2.241-10.086.333-12.316-4.262-2.23-4.595-.331-10.136 4.24-12.377zm-46.605-29.44c9.846-4.828 21.722-.718 26.525 9.179 4.803 9.896.713 21.832-9.134 26.659-9.846 4.826-21.722.717-26.525-9.18-4.803-9.896-.713-21.832 9.134-26.659zM804.22 164.407c8.858-4.513 19.697-.991 24.21 7.866 4.513 8.858.991 19.697-7.866 24.21-8.858 4.513-19.697.992-24.21-7.866-4.513-8.858-.992-19.697 7.866-24.21zm-33.577-9.052c4.183-2.131 9.301-.468 11.432 3.714 2.132 4.183.468 9.302-3.714 11.433-4.183 2.131-9.302.468-11.433-3.715-2.131-4.183-.468-9.301 3.715-11.432zm20.496-30.99c6.151-3.134 13.678-.688 16.813 5.463 3.134 6.15.688 13.678-5.463 16.812-6.151 3.134-13.678.689-16.813-5.462-3.134-6.152-.688-13.679 5.463-16.813zM273.572 90.652c6.39 7.616 5.397 18.97-2.219 25.36-7.615 6.39-18.968 5.396-25.359-2.22-6.39-7.615-5.396-18.968 2.22-25.358 7.614-6.39 18.968-5.397 25.358 2.218zm-39.496-28.364c4.437 5.288 3.748 13.173-1.54 17.61-5.29 4.438-13.174 3.748-17.611-1.54-4.438-5.289-3.748-13.173 1.54-17.611 5.289-4.437 13.173-3.748 17.61 1.54zm30.9-7.251c3.017 3.596 2.548 8.957-1.048 11.975-3.597 3.017-8.958 2.548-11.976-1.048-3.017-3.596-2.548-8.958 1.048-11.975 3.596-3.018 8.958-2.549 11.975 1.048zM246.061 504.853c-.602 6.877-6.665 11.964-13.542 11.363-6.877-.602-11.965-6.665-11.363-13.542.602-6.877 6.665-11.965 13.542-11.363 6.877.602 11.965 6.664 11.363 13.542zm-34.946-17.42c-.41 4.677-4.532 8.137-9.209 7.728-4.676-.41-8.136-4.532-7.726-9.209.409-4.676 4.532-8.136 9.208-7.727 4.677.41 8.136 4.532 7.727 9.209zm38.033-29.606c-.866 9.903-9.597 17.229-19.5 16.362-9.904-.866-17.23-9.597-16.363-19.5.866-9.903 9.597-17.23 19.5-16.363 9.904.867 17.23 9.597 16.363 19.5z"/>
        <circle cx="57.198" cy="335.941" r="18" transform="rotate(-161 57.198 335.941)"/>
        <circle cx="43.478" cy="296.517" r="8.5" transform="rotate(-161 43.478 296.517)"/>
        <circle cx="78.705" cy="293.515" r="12.5" transform="rotate(-161 78.705 293.515)"/>
        <path d="M447.937 83.92c-.196.539-.425 1.065-.687 1.575.563.082 1.12.2 1.669.354 7.23 2.35 11.186 10.122 8.834 17.36-2.352 7.24-10.12 11.203-17.351 8.853-2.993-.983-5.552-2.974-7.241-5.635l-45.112 23.015c1.157 2.932 1.262 6.176.298 9.178-2.352 7.239-10.12 11.202-17.352 8.853-7.231-2.35-11.186-10.123-8.834-17.361.198-.534.43-1.056.695-1.56-.566-.088-1.126-.21-1.677-.37-5.794-1.835-9.698-7.256-9.605-13.34.093-6.082 4.16-11.387 10.008-13.052 5.847-1.664 12.091.705 15.363 5.83l45.111-23.015c-1.161-2.936-1.27-6.185-.305-9.193 2.352-7.239 10.12-11.202 17.352-8.853 7.23 2.35 11.186 10.122 8.834 17.361z"/>
    </g>
</svg>
