<svg xmlns="http://www.w3.org/2000/svg" width="78" height="81" viewBox="0 0 78 81">
    <g fill="none" fill-rule="evenodd" stroke="#4BAEB4" stroke-linecap="round" stroke-linejoin="round" stroke-width="6.667">
        <path d="M13.334 60c0 3.68-2.986 6.667-6.666 6.667S0 63.68 0 60c0-3.68 2.987-6.667 6.667-6.667 3.68 0 6.666 2.987 6.666 6.667zM56.668 33.333L56.668 33.3M62.055 45.524L70.002 73.334 56.668 73.334 50.002 53.334 36.668 60.001" transform="translate(4 4)"/>
        <path d="M62.058 45.532c5.53-2.446 9.084-8.543 7.607-15.236-1.073-4.864-5-8.83-9.857-9.937-8.726-1.993-16.473 4.587-16.473 12.973-16.57 0-30 13.434-30 30v10h33.333C46.668 65.97 40.698 60 33.335 60M43.334 0L43.334 33.333M56.668 0L56.668 20" transform="translate(4 4)"/>
    </g>
</svg>
